<svg id="logo" xmlns="http://www.w3.org/2000/svg" viewBox="0 0 272 113">
  <defs>
    <style>
      .cls-1 {
        fill: #1f252d;
      }

      .cls-2 {
        fill: #36edad;
      }
    </style>
  </defs>
  <g id="ullo">
    <path class="cls-1" d="M1.16,22.66c0-1.24.46-1.45,1.54-1.37A22.81,22.81,0,0,1,23.91,43.92c0,5.87.09,11.77,0,17.6a27,27,0,0,0,7.45,19.63,37.59,37.59,0,0,0,4.16,3.62A29.43,29.43,0,0,0,44,88.39a26.57,26.57,0,0,0,32-18.3,28,28,0,0,0,1-7.66c0-5.82,0-11.64,0-17.47a23.18,23.18,0,0,1,4.29-14.18,22.94,22.94,0,0,1,17-9.45c1-.12,1.41.09,1.37,1.21,0,14.1,0,28.16,0,42.26a43.53,43.53,0,0,1-2,11.94,48.51,48.51,0,0,1-18.35,26c-.58.42-1.25.75-1.87,1.13a45.6,45.6,0,0,1-22.3,7.86c-16.55,1.37-30.57-4.12-41.72-16.52A46.62,46.62,0,0,1,1.41,66.93Z"/>
    <path class="cls-2" d="M66.59,39.61A50.59,50.59,0,0,1,58,52.52a9.25,9.25,0,0,1-4.65,2.81C56,47.94,58.18,32,52.67,18.93c2,10.32-3.86,25.79-7.77,34.35-1.72-.43.5.68-.79-.76a49.72,49.72,0,0,1-8.64-12.91C32.19,32,33.08,24.91,37.7,18.23c2.62-3.76,5.24-7.43,7.93-11.07l4-5.43a1.68,1.68,0,0,1,2.74,0l4,5.43c2.74,3.64,5.36,7.31,7.94,11.07C69,24.91,69.87,32,66.59,39.61Z"/>
    <g>
      <path class="cls-1" d="M230.33,30.49A40.51,40.51,0,1,0,270.84,71,40.44,40.44,0,0,0,230.33,30.49Zm0,61A20.48,20.48,0,1,1,250.82,71,20.46,20.46,0,0,1,230.33,91.48Z"/>
      <path class="cls-1" d="M154.54,21.11h15.94A5.88,5.88,0,0,1,176.36,27v84.36a.18.18,0,0,1-.18.18H154.54a.18.18,0,0,1-.18-.18V21.29a.18.18,0,0,1,.18-.18Z"/>
      <path class="cls-1" d="M114.63,21.11h21.68a.16.16,0,0,1,.16.16v90.11a.16.16,0,0,1-.16.16H120.37a5.9,5.9,0,0,1-5.9-5.9V21.27a.16.16,0,0,1,.16-.16Z"/>
    </g>
  </g>
</svg>
