<svg id="Layer_1" data-name="Layer 1" xmlns="http://www.w3.org/2000/svg" xmlns:xlink="http://www.w3.org/1999/xlink" viewBox="0 0 500 310"><defs><style>.cls-1{fill:none;}.cls-2{clip-path:url(#clip-path);}.cls-3{fill:#3a3a3a;}.cls-4{clip-path:url(#clip-path-2);}</style><clipPath id="clip-path"><rect class="cls-1" x="176.83" y="64.97" width="130.02" height="130.02"/></clipPath><clipPath id="clip-path-2"><rect class="cls-1" x="58.07" y="215.99" width="383.85" height="51.24"/></clipPath></defs><g class="cls-2"><path class="cls-3" d="M241.84,65a65,65,0,1,0,65,65,65.16,65.16,0,0,0-65-65M231.68,194.21V181.55a11.41,11.41,0,0,0-7-10.47,44.39,44.39,0,1,1,61.57-40.94c0,28.75-22.35,55.79-54.54,64.07"/></g><g class="cls-4"><path class="cls-3" d="M72.57,231q11.76,0,11.75,10.11v24.13c0,.7-.31,1-1,1H81.89c-.7,0-1-.32-1.09-1l-.32-3A19,19,0,0,1,68.26,267c-3.13,0-5.64-.86-7.36-2.66a8.84,8.84,0,0,1-2.82-7,9.66,9.66,0,0,1,3.36-7.84c2.28-1.88,5.41-2.82,9.25-2.82a41.15,41.15,0,0,1,4.86.39c1.72.32,3.37.71,4.93,1.1v-5.64c0-2.67-.7-4.7-2-6-1.26-1.09-3.53-1.88-6.51-1.88a28.54,28.54,0,0,0-8.93,1.41c-.55.16-.86.32-1.1.39a1.4,1.4,0,0,1-.7.16.78.78,0,0,1-.86-.86v-1.1a1.49,1.49,0,0,1,.86-1.41,37.27,37.27,0,0,1,5.56-1.57,24.21,24.21,0,0,1,5.72-.62m-1,18.72c-6.34,0-9.48,2.43-9.48,7.37,0,4.23,2.27,6.35,6.66,6.35a16.9,16.9,0,0,0,5.56-1,34.33,34.33,0,0,0,6.12-3v-8.54a36,36,0,0,0-8.86-1.18"/><path class="cls-3" d="M132.67,231c3.13,0,5.56.86,7.05,2.58s2.43,4.23,2.43,7.68v23.82c0,.71-.32,1-1,1h-1.88c-.71,0-1-.31-1-1V243c0-3-.55-5.1-1.57-6.51a6,6,0,0,0-4.93-2,20.12,20.12,0,0,0-12.3,4.24,23.51,23.51,0,0,1,.15,3.29V265.2c0,.71-.31,1-1,1h-1.88c-.7,0-1-.31-1-1V243.1c0-3-.54-5.09-1.56-6.5a6.05,6.05,0,0,0-4.94-2,20.87,20.87,0,0,0-12.07,4.08V265.2c0,.71-.31,1-1,1H94.2c-.71,0-1-.31-1-1v-32c0-.7.31-1,1-1h1.41c.7,0,1.09.31,1.09,1l.32,2.67a22.9,22.9,0,0,1,6.34-3.53,18.12,18.12,0,0,1,6.51-1.25c4.23,0,7,1.72,8.54,5.25a27,27,0,0,1,6.81-4,24,24,0,0,1,7.45-1.25"/><path class="cls-3" d="M163.62,231q11.74,0,11.75,10.11v24.13c0,.7-.31,1-1,1h-1.41c-.71,0-1-.32-1.1-1l-.31-3a19,19,0,0,1-12.22,4.7c-3.14,0-5.64-.86-7.37-2.66-1.88-1.88-2.66-4.08-2.66-7.21a9.66,9.66,0,0,1,3.37-7.84c2.27-1.88,5.4-2.82,9.24-2.82a39.32,39.32,0,0,1,4.86.4c1.72.31,3.37.7,4.94,1.09v-5.72c0-2.66-.71-4.7-2-6-1.26-1.1-3.53-1.88-6.51-1.88a28.59,28.59,0,0,0-8.93,1.41,10.2,10.2,0,0,0-1.09.39,2.9,2.9,0,0,1-.71.16.79.79,0,0,1-.86-.87v-1.09a1.47,1.47,0,0,1,.86-1.41,35.32,35.32,0,0,1,5.56-1.57,43.35,43.35,0,0,1,5.57-.39m-.87,18.72c-6.34,0-9.48,2.43-9.48,7.37,0,4.23,2.28,6.35,6.66,6.35a17,17,0,0,0,5.57-1,37.11,37.11,0,0,0,6.11-3v-8.54a38,38,0,0,0-8.86-1.18"/><path class="cls-3" d="M207.81,263.79v1.41c0,.71-.32,1-1,1h-24c-.7,0-1-.31-1-1v-1.41a2.31,2.31,0,0,1,.16-1.1,4.77,4.77,0,0,1,.71-1l20.68-26.24H183.75a.89.89,0,0,1-1-1V233c0-.71.32-1,1-1h23.12c.7,0,1,.31,1,1v1.41a2.13,2.13,0,0,1-.16,1,3.57,3.57,0,0,1-.71,1.09l-20.68,26.25H207c.55,0,.79.32.79,1"/><path class="cls-3" d="M227.79,267.24c-4.94,0-8.78-1.57-11.6-4.7s-4.07-7.68-4.07-13.48,1.41-10.19,4.07-13.32c2.82-3.14,6.66-4.7,11.6-4.7s8.77,1.56,11.59,4.7,4.08,7.52,4.08,13.32-1.41,10.18-4.08,13.48c-2.74,3.13-6.58,4.7-11.59,4.7m0-3.61q11.75,0,11.75-14.57c0-9.64-4-14.57-11.75-14.57S216,239.34,216,249.06s4,14.57,11.76,14.57"/><path class="cls-3" d="M268.92,231c3.37,0,6,.86,7.68,2.58s2.59,4.23,2.59,7.68v23.82c0,.71-.32,1-1,1h-1.88c-.71,0-1-.31-1-1V243c0-3-.55-5.1-1.72-6.51a7,7,0,0,0-5.41-2,21.61,21.61,0,0,0-6.82,1.1A27.46,27.46,0,0,0,255,239V265.2c0,.71-.32,1-1,1h-1.88c-.71,0-1-.31-1-1v-32c0-.7.31-1,1-1h1.41c.7,0,1.09.31,1.09,1l.32,3a26.79,26.79,0,0,1,7-3.68,17.94,17.94,0,0,1,7.05-1.41"/><path class="cls-3" d="M317,231q11.76,0,11.75,10.11v24.13c0,.7-.31,1-1,1h-1.41c-.7,0-1-.32-1.09-1l-.32-3a19,19,0,0,1-12.22,4.7c-3.13,0-5.64-.86-7.36-2.66-1.88-1.88-2.67-4.08-2.67-7.21a9.69,9.69,0,0,1,3.37-7.84c2.27-1.88,5.41-2.82,9.25-2.82a39.18,39.18,0,0,1,4.85.4c1.73.31,3.37.7,4.94,1.09v-5.72c0-2.66-.7-4.7-2-6-1.25-1.1-3.52-1.88-6.5-1.88a28.54,28.54,0,0,0-8.93,1.41,10.61,10.61,0,0,0-1.1.39,1.4,1.4,0,0,1-.7.16.79.79,0,0,1-.87-.87v-1.09a1.48,1.48,0,0,1,.87-1.41,35,35,0,0,1,5.56-1.57A43.06,43.06,0,0,1,317,231m-1,18.72c-6.34,0-9.48,2.43-9.48,7.37,0,4.23,2.27,6.35,6.66,6.35a16.86,16.86,0,0,0,5.56-1,37.19,37.19,0,0,0,6.12-3v-8.54a36,36,0,0,0-8.86-1.18"/><path class="cls-3" d="M337.72,217c0-.7.31-1,1-1h1.88c.71,0,1,.32,1,1v43.41a2.15,2.15,0,0,0,2.67,2.66H346a1,1,0,0,1,1,1v1.26a1,1,0,0,1-.86,1,2.63,2.63,0,0,1-1.1.15h-1.41a5.49,5.49,0,0,1-4.23-1.57,6.09,6.09,0,0,1-1.57-4.38Z"/><path class="cls-3" d="M375.33,262.54c.54-.16,1-.32,1.25-.4a1.47,1.47,0,0,1,.7-.15.79.79,0,0,1,.87.86v1a1.69,1.69,0,0,1-.71,1.41,25.59,25.59,0,0,1-10.34,2c-5.25,0-9.25-1.57-11.91-4.55s-4.08-7.36-4.08-13.16a26.12,26.12,0,0,1,1.1-7.68,17.87,17.87,0,0,1,3.14-5.8,15,15,0,0,1,5.09-3.68,16.58,16.58,0,0,1,6.66-1.25c4,0,7,.86,9.09,2.66a9.78,9.78,0,0,1,3.29,7.68c0,3.29-1.1,5.56-3.37,7s-5.8,2.27-10.66,2.27c-1.72,0-3.37-.15-5.25-.31a31.58,31.58,0,0,1-5.25-1c0,4.86,1,8.54,3.14,10.81s5.09,3.53,9.24,3.53a32.87,32.87,0,0,0,8-1.25m-8.7-28.13a11,11,0,0,0-8.07,3c-2,2-3.14,4.94-3.53,8.78a42.63,42.63,0,0,0,5.25,1,29.91,29.91,0,0,0,5.25.31c3.37,0,6-.55,7.52-1.56a5.37,5.37,0,0,0,2.43-4.86c0-4.39-3-6.66-8.85-6.66"/><path class="cls-3" d="M397.73,251.18l-9.79,14.33a1.58,1.58,0,0,1-1.41.71h-1.88c-.55,0-.86-.31-.86-.71a3.13,3.13,0,0,1,.39-.86l11.59-16.14-10.65-14.73a1.54,1.54,0,0,1-.39-.86c0-.55.31-.71.86-.71h2.11a1.91,1.91,0,0,1,1.41.71l8.94,12.61,8.77-12.77a1.58,1.58,0,0,1,1.41-.7h1.88c.55,0,.87.31.87.7a3.16,3.16,0,0,1-.4.86l-10.5,14.5,11.6,16.45a1.56,1.56,0,0,1,.39.87c0,.54-.31.7-.86.7h-2.12a2.08,2.08,0,0,1-1.41-.7Z"/><path class="cls-3" d="M430.17,231q11.76,0,11.75,10.11v24.13c0,.7-.31,1-1,1H439.5c-.71,0-1-.32-1.1-1l-.31-3a19,19,0,0,1-12.23,4.7c-3.13,0-5.64-.86-7.36-2.66-1.88-1.88-2.67-4.08-2.67-7.21a9.69,9.69,0,0,1,3.37-7.84c2.28-1.88,5.41-2.82,9.25-2.82a39.32,39.32,0,0,1,4.86.4c1.72.31,3.37.7,4.93,1.09v-5.72c0-2.66-.7-4.7-2-6-1.25-1.1-3.52-1.88-6.5-1.88a28.54,28.54,0,0,0-8.93,1.41,11.58,11.58,0,0,0-1.1.39,2.84,2.84,0,0,1-.7.16.79.79,0,0,1-.87-.87v-1.09a1.48,1.48,0,0,1,.87-1.41,35,35,0,0,1,5.56-1.57,42.06,42.06,0,0,1,5.56-.39m-.94,18.72c-6.34,0-9.48,2.43-9.48,7.37,0,4.23,2.27,6.35,6.66,6.35a16.86,16.86,0,0,0,5.56-1,37.19,37.19,0,0,0,6.12-3v-8.54a37,37,0,0,0-8.86-1.18"/></g></svg>