<svg id="Layer_1" data-name="Layer 1" xmlns="http://www.w3.org/2000/svg" viewBox="0 0 500 310"><defs><style>.cls-1{fill:gray;}.cls-2{fill:#737373;}.cls-3{fill:#666;}.cls-4{fill:#595959;}.cls-5{fill:#4d4d4d;}.cls-6{fill:#404040;}.cls-7,.cls-8{fill:#3a3a3a;}.cls-8{font-size:59.5px;font-family:OpenSans-Regular, Open Sans;}</style></defs><path class="cls-1" d="M196.59,193a6.11,6.11,0,0,1-5-5.09c-.15-.79-.2-11.48-.2-35.1v-34l-7,0c-6.64-.07-7-.07-7.47-.47a3.26,3.26,0,0,1-.91-1.1c-.49-1-.3-1.92.71-3,1.23-1.26,69.82-55.46,70.85-56a4.64,4.64,0,0,1,3.86,0c.49.25,9.49,7.28,20,15.61s19.2,15.17,19.25,15.17.12-2.51.17-5.58c.07-7.87-.49-7.37,8.16-7.37,6.59,0,6.86,0,7.72,1.22.39.55.39.79.49,12.76l.1,12.2,7.13,5.65c3.93,3.1,7.5,6,7.86,6.39a2.36,2.36,0,0,1,.62,2.88,3.64,3.64,0,0,1-.89,1.1c-.54.4-.83.4-7.49.47l-6.94,0v34c0,23.6-.07,34.32-.22,35.11a6.1,6.1,0,0,1-3.64,4.72l-1.08.49-52.63,0c-29,0-53,0-53.54-.12Z"/><path class="cls-2" d="M196.9,192.83a7.17,7.17,0,0,1-3.27-1.82,8.86,8.86,0,0,1-1-1.65l-.49-1.06L192,153.52l-.09-34.79-6.94-.1c-6.88-.1-7-.1-7.59-.54a2.42,2.42,0,0,1-.1-3.76c1-1,69.74-55.21,70.55-55.71a4.43,4.43,0,0,1,4.21,0c.44.27,9.39,7.27,19.86,15.56s19.18,15.09,19.32,15.12.3-.69.3-5.41c0-8-.57-7.53,8-7.53,6.74,0,7,.05,7.67,1.36.32.64.35,1.64.35,12.56,0,6.54.07,12,.14,12.09s3.32,2.71,7.21,5.78,7.32,5.83,7.67,6.15a2.45,2.45,0,0,1,0,3.86c-.62.41-.74.44-7.57.51l-7,.1-.1,34.79-.1,34.78-.64,1.28a5.2,5.2,0,0,1-3,2.85l-1,.49-52.74,0c-29,0-53.1,0-53.59-.12Zm67-43.1c1.23-.74,1.23-.52,1.23-13.27,0-10.57-.05-11.58-.37-12.22-.25-.49-2-2-6.32-5.39-7-5.5-7.47-5.82-8.41-5.82s-1.42.34-8.41,5.82c-4.3,3.4-6.07,4.92-6.31,5.41s-.35,1.6-.35,12.25c0,13,0,12.58,1.35,13.27.62.32,1.7.34,13.82.34,12.83,0,13.15,0,13.77-.39Z"/><path class="cls-3" d="M197.09,192.7a8.71,8.71,0,0,1-2.09-.59,6.59,6.59,0,0,1-2.95-3.3c-.34-1-.37-2-.42-35.64l0-34.64-6.91,0c-6.22,0-7-.1-7.43-.39a2.38,2.38,0,0,1-.93-3c.2-.45,8.87-7.43,35.35-28.37,19.3-15.24,35.47-27.93,35.92-28.18a4.82,4.82,0,0,1,3.78-.07c.42.2,9.47,7.25,20.09,15.66q9.66,7.71,19.44,15.29a55.72,55.72,0,0,0,.2-5.65c.07-6.3.12-6.62,1.35-7.13.94-.4,12.34-.4,13.28,0,1.32.56,1.28.12,1.32,13.59l.08,12.1,7.69,6.09c5.58,4.43,7.77,6.27,7.94,6.69a2.37,2.37,0,0,1-.91,3c-.49.29-1.23.34-7.45.39l-6.88,0-.07,34.64c-.05,33.83-.05,34.64-.42,35.67a6.75,6.75,0,0,1-3.59,3.59c-1.06.37-1.94.37-53.12.39-28.64,0-52.61-.05-53.23-.14ZM273,160.25c1.13-.32,1.72-1.11,1.91-2.63.13-.79.18-8.85.15-19.82-.07-21.44.3-18.66-2.7-21q-10.69-8.82-21.86-17.06l-.91-.4-.91.4c-4,2.87-8,5.9-11.85,9s-7.71,6.15-11.55,9.27c-1.23,1.16-1.18,0-1.18,20.16,0,10.15.07,18.86.17,19.54a2.68,2.68,0,0,0,1.85,2.51c.83.25,46,.25,46.88,0Z"/><path class="cls-4" d="M196.19,192.41a5.35,5.35,0,0,1-2.8-2c-1.23-1.68-1.16.59-1.16-37.12,0-26.55,0-34.5-.25-34.67s-2-.24-6.95-.24c-7.21,0-7.45,0-8.14-1a2.36,2.36,0,0,1,.27-2.73c.57-.63,68.34-54.37,70.38-55.8a3.2,3.2,0,0,1,2.49-.66,3,3,0,0,1,2.45.68c.57.37,9.42,7.33,19.7,15.49s18.83,14.85,19,14.92a.33.33,0,0,0,.45-.09c.07-.15.17-2.78.17-5.85V77.78l.64-.66.66-.67h13l.67.67.63.66v12c0,7.76.08,12.14.2,12.39s3.44,3,7.45,6.09c2.65,2.07,5.26,4.21,7.82,6.39a2.34,2.34,0,0,1,.27,2.71c-.69,1-.91,1-8.16,1-5.41,0-6.79,0-7,.25s-.25,9.86-.25,35l-.07,34.74-.39.88a5.88,5.88,0,0,1-2.76,2.83l-1.1.54-53.13.05c-50,0-53.2,0-54.08-.3Zm78-32a4.85,4.85,0,0,0,1-.89c.39-.52.42-.81.52-8.51.07-4.37.14-13.17.14-19.54,0-10.87,0-11.65-.34-12.36s-1.67-1.85-8.24-7.06l-11.55-9.22c-1.4-1.15-2.85-2.24-4.35-3.24a3,3,0,0,0-1.7-.25c-1.2.1-.46-.44-11.75,8.56l-10.37,8.26c-2.46,2-2.85,2.36-3.17,3.14s-.32,2-.2,20c.12,17.65.15,19.22.47,19.84a2.78,2.78,0,0,0,2.09,1.55c.39,0,11.11.09,23.79.07C272.18,160.7,273.65,160.68,274.22,160.36Z"/><path class="cls-5" d="M196.47,192.58a6,6,0,0,1-4.18-3.37l-.44-1-.1-34.86-.1-34.89-7-.07c-3.81-.08-7.08-.2-7.23-.27a2.17,2.17,0,0,1-1.11-2.85c.25-.57,6.64-5.73,34.44-27.71,18.81-14.87,34.79-27.48,35.53-28,2.21-1.7,3.93-1.8,5.9-.4.49.35,8.85,6.91,18.56,14.6,20.35,16.13,20.06,15.89,20.28,15.74a37.65,37.65,0,0,0,.2-5.61c0-6.24.07-6.63,1.22-7.13,1-.41,12.17-.41,13.18,0,1.25.52,1.23.25,1.23,13.6v12l7.77,6.15c8.21,6.51,8.46,6.73,8.18,8.08a2.49,2.49,0,0,1-1.25,1.58c-.17.07-3.44.19-7.25.24l-7,.1-.1,34.89-.09,34.88-.45,1a6.46,6.46,0,0,1-3,3l-1,.44-52.74.05c-29,0-53.1-.05-53.54-.14Zm87.72-21.66a3,3,0,0,0,1.2-1.3l.42-.86.05-27.34c.07-27.24.07-27.34-.35-28s-1.72-1.74-12.83-10.52L259.85,92.72C257,90.38,254,88.12,251,86a3.16,3.16,0,0,0-2.9,0c-3,2.16-6,4.42-8.88,6.76l-12.85,10.15c-11.12,8.78-12.47,9.86-12.84,10.52s-.39.79-.34,28l.05,27.34.44.86a2.74,2.74,0,0,0,1.28,1.3l.83.44h67.71Z"/><path class="cls-6" d="M197.4,192.47c-2.85-.39-4.57-2.21-5-5.23-.1-.82-.17-15.25-.19-35.16V118.33l-6.89,0c-6.17,0-7-.1-7.54-.39a2.08,2.08,0,0,1-.82-.74,2.6,2.6,0,0,1,.2-2.39c.22-.27,2.88-2.46,5.93-4.89q32.37-25.82,65.07-51.23a4.34,4.34,0,0,1,3.66,0c.42.24,9.44,7.28,20,15.66s19.39,15.24,19.54,15.24.32-.2.39-.44.1-2.9.1-5.9V77.72l.59-.57.54-.57h13l.56.57.57.57.05,7.59c0,4.18.07,9.74.12,12.37l.12,4.77,7.16,5.63c3.93,3.09,7.47,6,7.86,6.39a2.11,2.11,0,0,1-.29,3.42c-.54.29-1.38.34-7.52.39l-6.91,0v33.85c0,21.09-.08,34.34-.2,35.15a5.52,5.52,0,0,1-5.16,5.17c-1.62.24-103.4.24-105,0Zm87-21a4.69,4.69,0,0,0,2.11-2.07c.23-.51.3-4.25.4-21.58l.12-21h10l0-9c-.05-8.63-.07-9.07-.44-9.66a68.12,68.12,0,0,0-6.15-5.24q-17.07-13.5-34.12-27c-2.19-1.72-4.23-3.3-4.55-3.47a4.39,4.39,0,0,0-3.29,0c-.32.17-2.36,1.72-4.55,3.44q-17,13.58-34.12,27.09a71.19,71.19,0,0,0-6.15,5.24c-.36.59-.39,1-.44,9.66l0,9h10l.13,21c.09,14.26.19,21.12.34,21.48a4.65,4.65,0,0,0,2,2.12c.49.24,6.54.27,34.41.27,23.43,0,34-.05,34.42-.22Z"/><path class="cls-7" d="M196.78,191.85a5.34,5.34,0,0,1-2.88-1.77c-1.6-1.77-1.47,1.21-1.47-37.61,0-28.1-.05-34.42-.25-34.59s-2.58-.24-7.28-.27l-7,0-.57-.64a1.94,1.94,0,0,1-.32-2.26,77.29,77.29,0,0,1,6.52-5.48l61.75-48.85A26.77,26.77,0,0,1,248.53,58,4.22,4.22,0,0,1,253,59l5.39,4.23c20.4,16.1,32.25,25.47,32.64,25.74.94.64,1,.39,1-5.7s0-6.42,1-6.89a40.91,40.91,0,0,1,6.59-.24c6.59,0,6.91.07,7.38,1.08.17.37.24,3.59.24,12.37,0,6.51,0,12,.1,12.16s3.57,3,7.79,6.4q4.1,3.09,7.89,6.56a1.92,1.92,0,0,1-.31,2.26l-.57.64-7,0a54.48,54.48,0,0,0-7.27.25c-.2.19-.25,6.51-.25,34.63,0,38.8.12,35.82-1.47,37.62a7.26,7.26,0,0,1-1.75,1.37l-.93.47h-53c-29.19,0-53.3,0-53.62-.1Zm98.46-10.67a4.11,4.11,0,0,0,1.45-1.45l.54-.91,0-35.15.05-35.2-.45-.84c-.51-1,1.67.79-35.69-28.71q-4.68-3.81-9.59-7.35a5.07,5.07,0,0,0-3.22,0c-.34.14-4.67,3.44-9.59,7.37-37.39,29.5-35.18,27.71-35.69,28.69l-.47.84.05,35.17.07,35.18.52.91a4.35,4.35,0,0,0,2.43,1.9c.27.09,20.33.14,44.57.12l44.06,0Z"/><text class="cls-8" transform="translate(37.11 261.21)">Apple HomeKit</text></svg>