<svg id="Layer_1" data-name="Layer 1" xmlns="http://www.w3.org/2000/svg" xmlns:xlink="http://www.w3.org/1999/xlink" viewBox="0 0 500 310"><defs><style>.cls-1{fill:none;}.cls-2{clip-path:url(#clip-path);}.cls-10,.cls-3,.cls-5{fill:#3a3a3a;}.cls-3{fill-rule:evenodd;}.cls-4{clip-path:url(#clip-path-2);}.cls-6{clip-path:url(#clip-path-3);}.cls-7{clip-path:url(#clip-path-4);}.cls-8{isolation:isolate;}.cls-9{clip-path:url(#clip-path-5);}.cls-10{font-size:52.52px;font-family:ArialMT, Arial;}.cls-11{clip-path:url(#clip-path-6);}.cls-12{clip-path:url(#clip-path-7);}.cls-13{clip-path:url(#clip-path-8);}.cls-14{clip-path:url(#clip-path-9);}.cls-15{clip-path:url(#clip-path-10);}.cls-16{clip-path:url(#clip-path-11);}.cls-17{clip-path:url(#clip-path-12);}.cls-18{clip-path:url(#clip-path-13);}</style><clipPath id="clip-path"><rect class="cls-1" x="176.01" y="64.97" width="147.01" height="147.01"/></clipPath><clipPath id="clip-path-2"><rect class="cls-1" x="53.11" y="218.09" width="176.65" height="57.29"/></clipPath><clipPath id="clip-path-3"><rect class="cls-1" x="53.11" y="215.99" width="390.58" height="62.12"/></clipPath><clipPath id="clip-path-4"><rect class="cls-1" x="239.22" y="215.99" width="204.46" height="62.12"/></clipPath><clipPath id="clip-path-5"><rect class="cls-1" x="239.22" y="215.99" width="35.21" height="62.12"/></clipPath><clipPath id="clip-path-6"><rect class="cls-1" x="274.38" y="215.99" width="26.26" height="62.12"/></clipPath><clipPath id="clip-path-7"><rect class="cls-1" x="298.28" y="215.99" width="26.26" height="62.12"/></clipPath><clipPath id="clip-path-8"><rect class="cls-1" x="322.79" y="215.99" width="11.67" height="62.12"/></clipPath><clipPath id="clip-path-9"><rect class="cls-1" x="333.46" y="215.99" width="26.26" height="62.12"/></clipPath><clipPath id="clip-path-10"><rect class="cls-1" x="357.09" y="215.99" width="14.59" height="62.12"/></clipPath><clipPath id="clip-path-11"><rect class="cls-1" x="371.22" y="215.99" width="29.21" height="62.12"/></clipPath><clipPath id="clip-path-12"><rect class="cls-1" x="398.22" y="215.99" width="29.21" height="62.12"/></clipPath><clipPath id="clip-path-13"><rect class="cls-1" x="425.88" y="215.99" width="14.59" height="62.12"/></clipPath></defs><g class="cls-2"><path class="cls-3" d="M311.81,120.59a9.8,9.8,0,1,0-9.75-9.8,9.77,9.77,0,0,0,9.75,9.8"/><path class="cls-3" d="M282.57,153.26a19.6,19.6,0,1,0-19.49-19.6,19.54,19.54,0,0,0,19.49,19.6"/><path class="cls-3" d="M282.57,205.53a22.87,22.87,0,1,0-22.74-22.86,22.8,22.8,0,0,0,22.74,22.86"/><path class="cls-3" d="M256.58,114.06a39,39,0,1,0-39,39.2,39.09,39.09,0,0,0,39-39.2"/></g><g class="cls-4"><path class="cls-5" d="M76.68,262.62a22.21,22.21,0,1,1,0-44.41,21.1,21.1,0,0,1,15.2,6.12l-4.27,4.28a15.45,15.45,0,0,0-10.93-4.34,16.14,16.14,0,0,0,0,32.28,14.81,14.81,0,0,0,11.2-4.44,12.63,12.63,0,0,0,3.3-7.63H76.68v-6.07h20.4a19.57,19.57,0,0,1,.32,3.79c0,4.55-1.24,10.18-5.25,14.19s-8.87,6.23-15.47,6.23"/><path class="cls-5" d="M128,248.22a14.34,14.34,0,1,1-14.34-14.3A14.12,14.12,0,0,1,128,248.22m-6.28,0c0-5.14-3.73-8.66-8.06-8.66s-8.06,3.52-8.06,8.66,3.73,8.67,8.06,8.67,8.06-3.58,8.06-8.67"/><path class="cls-5" d="M159.18,248.22a14.34,14.34,0,1,1-14.34-14.3,14.12,14.12,0,0,1,14.34,14.3m-6.27,0c0-5.14-3.74-8.66-8.07-8.66s-8.06,3.52-8.06,8.66,3.73,8.67,8.06,8.67,8.07-3.58,8.07-8.67"/><path class="cls-5" d="M189,234.82v25.64c0,10.57-6.22,14.9-13.58,14.9a13.62,13.62,0,0,1-12.66-8.45l5.47-2.27a7.9,7.9,0,0,0,7.19,5.09c4.71,0,7.63-2.93,7.63-8.4v-2.06h-.21a9.74,9.74,0,0,1-7.53,3.25c-7.14,0-13.69-6.23-13.69-14.24s6.55-14.36,13.69-14.36a9.92,9.92,0,0,1,7.53,3.2h.21v-2.3Zm-5.51,13.46c0-5-3.36-8.72-7.63-8.72s-8,3.68-8,8.72,3.63,8.61,8,8.61,7.63-3.63,7.63-8.61"/><rect class="cls-5" x="193.31" y="219.66" width="6.28" height="42.03"/><path class="cls-5" d="M223.29,252.93l4.87,3.25a14.21,14.21,0,0,1-11.9,6.34c-8.12,0-14-6.28-14-14.3,0-8.5,5.94-14.3,13.3-14.3s11,5.91,12.23,9.1l.65,1.63-19.1,7.9a7.28,7.28,0,0,0,6.93,4.34,8.14,8.14,0,0,0,7-4m-15-5.14,12.77-5.31c-.7-1.79-2.81-3-5.3-3a7.84,7.84,0,0,0-7.47,8.34"/></g><g class="cls-6"><g class="cls-7"><g class="cls-8"><g class="cls-9"><text class="cls-10" transform="translate(239.3 261.06)">A</text></g></g><g class="cls-8"><g class="cls-11"><text class="cls-10" transform="translate(274.38 261.06)">s</text></g></g><g class="cls-8"><g class="cls-12"><text class="cls-10" transform="translate(298.28 261.06)">s</text></g></g><g class="cls-8"><g class="cls-13"><text class="cls-10" transform="translate(323.02 261.06)">i</text></g></g><g class="cls-8"><g class="cls-14"><text class="cls-10" transform="translate(333.46 261.06)">s</text></g></g><g class="cls-8"><g class="cls-15"><text class="cls-10" transform="translate(357.09 261.06)">t</text></g></g><g class="cls-8"><g class="cls-16"><text class="cls-10" transform="translate(371.22 261.06)">a</text></g></g><g class="cls-8"><g class="cls-17"><text class="cls-10" transform="translate(398.21 261.06)">n</text></g></g><g class="cls-8"><g class="cls-18"><text class="cls-10" transform="translate(425.88 261.06)">t</text></g></g></g></g></svg>