<svg id="Layer_1" data-name="Layer 1" xmlns="http://www.w3.org/2000/svg" xmlns:xlink="http://www.w3.org/1999/xlink" viewBox="0 0 500 310"><defs><style>.cls-1{fill:none;}.cls-2{clip-path:url(#clip-path);}.cls-3{fill:#3a3a3a;}</style><clipPath id="clip-path"><rect class="cls-1" x="209.09" y="62.82" width="80.91" height="98.58"/></clipPath></defs><g class="cls-2"><path class="cls-3" d="M289.13,94.62a40.41,40.41,0,0,0-67.94-20.09,41.75,41.75,0,0,0-12.05,26.3A44.51,44.51,0,0,0,213.52,122a42.62,42.62,0,0,0,7.67,10.59c1.14,1.1,2.16,2,2.92,2.56A35.48,35.48,0,0,1,238,126.4a36,36,0,0,1,18.63-1.1,35.33,35.33,0,0,1,11.69,4.75,34.38,34.38,0,0,1,6.21,5.12l1.46-1.1a42.28,42.28,0,0,0,7.31-8.77c1.92-3.08,9.18-15.13,5.84-30.68M280.36,106a27.44,27.44,0,0,1-2.55,10.59,25.55,25.55,0,0,1-2.93,4.75l-1.46,1.09a49.2,49.2,0,0,0-31.78-5.84,46.19,46.19,0,0,0-16.43,6.21c-.36-.5-.88-1.26-1.46-2.19a44.13,44.13,0,0,1-3.29-6.58c-3.4-9-1.1-18.26-1.1-18.26a30.21,30.21,0,0,1,27.76-23,30.11,30.11,0,0,1,16.81,2.92A30.43,30.43,0,0,1,277.81,91a33.45,33.45,0,0,1,2.55,15"/><path class="cls-3" d="M262.46,148.32a19.55,19.55,0,0,0-4.74-3.29,18.6,18.6,0,0,0-11.33-1.83,18.22,18.22,0,0,0-9.86,5.12L231,143c.26-.3.66-.74,1.17-1.23a23.59,23.59,0,0,1,11.32-5.84,26.85,26.85,0,0,1,13.52.36,26.09,26.09,0,0,1,10.95,6.58Z"/><path class="cls-3" d="M255.16,154.16a10.35,10.35,0,0,0-5.11-1.83c-.87-.05-4.08-.27-6.21,1.83a6.17,6.17,0,0,0-.63.73l6.3,6.51,6.38-6.51Z"/></g><polygon class="cls-3" points="132.71 181.09 132.71 265.6 177.34 265.83 177.34 245.71 153.08 245.22 153.28 181.09 132.71 181.09"/><rect class="cls-3" x="193.24" y="180.6" width="21.21" height="85.38"/><polygon class="cls-3" points="332.3 181.09 321.39 204.97 310.59 181.09 232.44 181.09 232.44 266.32 253.49 266.32 253.49 239.33 281.13 239.4 281.13 219.52 253.49 219.61 253.49 202.06 297.62 202.06 310.15 223.88 285.98 266.32 309.85 266.32 321.39 244.74 331.65 266.32 356.79 266.32 333.21 223.88 356.79 181.09 332.3 181.09"/></svg>