<svg id="Layer_1" data-name="Layer 1" xmlns="http://www.w3.org/2000/svg" xmlns:xlink="http://www.w3.org/1999/xlink" viewBox="0 0 500 310"><defs><style>.cls-1{fill:#3a3a3a;}.cls-2{fill:none;}.cls-3{clip-path:url(#clip-path);}.cls-4{fill:#5d6b82;}.cls-5{clip-path:url(#clip-path-2);}</style><clipPath id="clip-path"><path class="cls-1" d="M273.3,232.19V243c0,17.92-12,24.3-23.84,24.3-15.17,0-23-10.92-23.08-23.67l-.09-11.44h-8.67l.09,9.36c0,22.93,14.47,34.47,32.56,34.47A32.76,32.76,0,0,0,275,264.94s0,0,.08-.06l.12-.13.16-.2a16.14,16.14,0,0,0,5.62,8.69,15.53,15.53,0,0,0,9.71,2.79c0-2.85,0-5.71,0-8.56a9.24,9.24,0,0,1-4.12-.86,6.29,6.29,0,0,1-1.81-1.75,20.4,20.4,0,0,1-2.05-6.93,76.48,76.48,0,0,1-.56-11.22c0-.63.05-1.26.05-1.9l0-12.62ZM132.24,276h8.68V232.17h-8.68ZM188,276h8.67V232.17H188ZM312,200a25.17,25.17,0,0,1,5.81-16.17c4-4.83,10.08-7.58,18-7.18,7.09.36,13.78,3.08,18.11,8.11a23.69,23.69,0,0,1,5.17,14.45c.24,6.85-1.72,12.13-5.27,15.93-3.82,4.09-9.49,6.46-16.25,7.21a48.22,48.22,0,0,1-5.51.14c-1.21,0-2.42,0-3.63,0H312Zm22.41-32.09c-9.58,0-17.67,3.69-23.26,10.4-6.44,7.74-7.82,14.92-7.82,25v19.2H290.66v8.66H303.3v7.82a65,65,0,0,0,.26,8,40.11,40.11,0,0,0,2.58,10.3,30.33,30.33,0,0,0,8.64,12.1A30.83,30.83,0,0,0,334.15,276c10.46.13,21.4-4.15,27.83-12.91-2.27-1.74-4.67-3.33-7-5.05-6.09,6.59-12.1,9.63-21.34,9.33a22.09,22.09,0,0,1-13.08-4.45,21.6,21.6,0,0,1-6.58-9.32A30.36,30.36,0,0,1,312,243.45c0-3.31,0-5.7,0-9l.05-3.33h21.26A30.49,30.49,0,0,0,337,231c9.26-.3,17.44-3.94,23-10a29.91,29.91,0,0,0,7.74-21.63c-.22-7.11-2.44-14.31-6.41-19.41-6.12-7.87-16-12.08-26.87-12.1h-.08M217.84,221.13h8.68V167.82h-8.68Zm55.46,0h8.84V167.82H273.3ZM132.24,126.07v95.08h8.68V199.38c0-14.51,11.87-22.81,23.61-22.84,13.09,0,23.47,8.55,23.47,25v19.66h8.67V203h0l0-1.93c0-18.92-12.08-33.29-31.89-33.29-5.54,0-16.24,1.77-23.86,9.47V126.07Z"/></clipPath><clipPath id="clip-path-2"><rect class="cls-2" x="133.91" y="69.71" width="231.21" height="42.4"/></clipPath></defs><path class="cls-1" d="M273.3,232.19V243c0,17.92-12,24.3-23.84,24.3-15.17,0-23-10.92-23.08-23.67l-.09-11.44h-8.67l.09,9.36c0,22.93,14.47,34.47,32.56,34.47A32.76,32.76,0,0,0,275,264.94s0,0,.08-.06l.12-.13.16-.2a16.14,16.14,0,0,0,5.62,8.69,15.53,15.53,0,0,0,9.71,2.79c0-2.85,0-5.71,0-8.56a9.24,9.24,0,0,1-4.12-.86,6.29,6.29,0,0,1-1.81-1.75,20.4,20.4,0,0,1-2.05-6.93,76.48,76.48,0,0,1-.56-11.22c0-.63.05-1.26.05-1.9l0-12.62ZM132.24,276h8.68V232.17h-8.68ZM188,276h8.67V232.17H188ZM312,200a25.17,25.17,0,0,1,5.81-16.17c4-4.83,10.08-7.58,18-7.18,7.09.36,13.78,3.08,18.11,8.11a23.69,23.69,0,0,1,5.17,14.45c.24,6.85-1.72,12.13-5.27,15.93-3.82,4.09-9.49,6.46-16.25,7.21a48.22,48.22,0,0,1-5.51.14c-1.21,0-2.42,0-3.63,0H312Zm22.41-32.09c-9.58,0-17.67,3.69-23.26,10.4-6.44,7.74-7.82,14.92-7.82,25v19.2H290.66v8.66H303.3v7.82a65,65,0,0,0,.26,8,40.11,40.11,0,0,0,2.58,10.3,30.33,30.33,0,0,0,8.64,12.1A30.83,30.83,0,0,0,334.15,276c10.46.13,21.4-4.15,27.83-12.91-2.27-1.74-4.67-3.33-7-5.05-6.09,6.59-12.1,9.63-21.34,9.33a22.09,22.09,0,0,1-13.08-4.45,21.6,21.6,0,0,1-6.58-9.32A30.36,30.36,0,0,1,312,243.45c0-3.31,0-5.7,0-9l.05-3.33h21.26A30.49,30.49,0,0,0,337,231c9.26-.3,17.44-3.94,23-10a29.91,29.91,0,0,0,7.74-21.63c-.22-7.11-2.44-14.31-6.41-19.41-6.12-7.87-16-12.08-26.87-12.1h-.08M217.84,221.13h8.68V167.82h-8.68Zm55.46,0h8.84V167.82H273.3ZM132.24,126.07v95.08h8.68V199.38c0-14.51,11.87-22.81,23.61-22.84,13.09,0,23.47,8.55,23.47,25v19.66h8.67V203h0l0-1.93c0-18.92-12.08-33.29-31.89-33.29-5.54,0-16.24,1.77-23.86,9.47V126.07Z"/><g class="cls-3"><path class="cls-4" d="M211.84,166.56a3.57,3.57,0,0,0-3.69,3.41h-.66a.37.37,0,0,0-.4.39.36.36,0,0,0,.4.38h.66a3.59,3.59,0,0,0,3.92,3.42,5.26,5.26,0,0,0,2.33-.45.43.43,0,0,0,.29-.47.33.33,0,0,0-.15-.24.5.5,0,0,0-.42,0,2.06,2.06,0,0,0-.35.12,4.2,4.2,0,0,1-1.6.27,2.67,2.67,0,0,1-3-2.6v0h5.45a.44.44,0,0,0,.5-.46v-.06C215.16,166.82,212.62,166.56,211.84,166.56Zm2.37,3.41h-5v0a2.59,2.59,0,0,1,2.64-2.6,2.29,2.29,0,0,1,2.35,2.6Zm-13.5-2.79a.52.52,0,1,0-1,0V170h1ZM205,171a2.25,2.25,0,0,1-2.16,2.37c-1.44,0-2.13-.77-2.13-2.34v-.28h-1v.34c0,2,1,3.08,2.86,3.08a2.57,2.57,0,0,0,2.45-1.44l0,0v.86a.52.52,0,1,0,1,0v-2.8h-1Zm.52-4.35a.48.48,0,0,0-.52.54V170h1v-2.79A.49.49,0,0,0,205.52,166.64Zm-10.71-.08a2.61,2.61,0,0,0-2.47,1.4l-.14.27v-3.92a.52.52,0,1,0-1,0V170h1a2.37,2.37,0,0,1,2.31-2.59c1.29,0,2,.82,2,2.33V170h1v-.24C197.55,167.68,196.57,166.56,194.81,166.56Zm-3.65,6.95a.52.52,0,1,0,1,0v-2.77h-1Zm5.35,0a.52.52,0,1,0,1,0v-2.77h-1Z"/></g><g class="cls-5"><path class="cls-1" d="M157.39,85.38c0,5.28-2.55,8.85-9,8.85h-2V77.42c.72,0,1.4,0,2,0,6.12,0,9,2.89,9,8m-6.64,16.17c11.57,0,18.89-6,18.89-16.34,0-11.41-7.83-15.5-20.59-15.5a140,140,0,0,0-15.14.85v40.7h12.42v-9.71ZM317.14,85.38c0,5.28-2.55,8.85-9,8.85h-2V77.42c.72,0,1.4,0,2,0,6.13,0,9,2.89,9,8m-6.63,16.17c11.56,0,18.88-6,18.88-16.34,0-11.41-7.82-15.5-20.58-15.5a140,140,0,0,0-15.15.85v40.7h12.43v-9.71Zm35-20.6c0-2.21,2.22-3.24,5.79-3.24a31.27,31.27,0,0,1,11.06,2.05l-1-8.86A48.74,48.74,0,0,0,350,69.71c-10,0-16.84,4-16.84,12.26,0,14.3,19.39,11.41,19.39,18,0,2.55-1.87,3.91-6.47,3.91a37.27,37.27,0,0,1-14.12-3.23l1.37,9.37a41.12,41.12,0,0,0,12.93,2c10.37,0,18.88-3.41,18.88-13.62,0-13.62-19.57-11.07-19.57-17.54M284.31,70.56H271.89v40.7h12.42Zm-50.36,0H221.53v40.7H234Zm21.6,32.52V70.56H243.13v40.7h22.46l1.87-8.18ZM212.34,70.56H199.92V86.74H187V70.56H174.57v40.7H187v-16h12.93v16h12.42Z"/></g></svg>