<svg xmlns="http://www.w3.org/2000/svg" xmlns:xlink="http://www.w3.org/1999/xlink" width="37" height="28" viewBox="0 0 37 28">
  <defs>
    <clipPath id="clip-path">
      <rect id="Rectangle_380" data-name="Rectangle 380" width="37" height="28" transform="translate(250 644)" fill="#fff" stroke="#707070" stroke-width="1"/>
    </clipPath>
    <clipPath id="clip-path-2">
      <path id="Path_233" data-name="Path 233" d="M10.039,21.728a6.574,6.574,0,0,1-2.707-1.9,9.739,9.739,0,0,1-1.894-2.707,13.532,13.532,0,0,1-.543-3.384,9.425,9.425,0,0,1,.677-3.387,6.535,6.535,0,0,1,1.9-2.707,9.71,9.71,0,0,1,2.707-1.9,9.474,9.474,0,0,1,3.384-.677,9.5,9.5,0,0,1,3.387.677,6.535,6.535,0,0,1,2.707,1.9,9.688,9.688,0,0,1,1.894,2.707,9.425,9.425,0,0,1,.679,3.387,7.355,7.355,0,0,1-.8,3.384,6.513,6.513,0,0,1-1.9,2.707,9.761,9.761,0,0,1-2.729,1.9,9.476,9.476,0,0,1-3.377.672,9.474,9.474,0,0,1-3.384-.677M13.691.465A.5.5,0,0,0,13.284.6L10.577,4.251,6.114,2.907H5.707c-.136.134-.27.27-.27.4V7.918L1.1,9.269c-.134.134-.27.134-.27.407v.407L3.54,13.735.833,17.387a.29.29,0,0,0-.1.195V17.6a.3.3,0,0,0,.1.195.292.292,0,0,0,.27.27l4.334,1.49v4.611a.487.487,0,0,0,.134.4.243.243,0,0,0,.407,0l4.334-1.354,2.707,3.652a.487.487,0,0,0,.4.136.5.5,0,0,0,.409-.136l2.707-3.652,4.331,1.354h.407a.487.487,0,0,0,.149-.4v-4.6l4.331-1.49a.292.292,0,0,0,.273-.27.265.265,0,0,0,.265-.27l-2.715-3.652L26.3,10.226a.3.3,0,0,0,.1-.2.29.29,0,0,0-.1-.2.29.29,0,0,0-.27-.27l-4.334-1.49V3.311a.487.487,0,0,0-.136-.4.243.243,0,0,0-.4,0L16.8,4.261,14.093.609A.5.5,0,0,0,13.7.47Z" fill="#fff"/>
    </clipPath>
  </defs>
  <g id="Mask_Group_18" data-name="Mask Group 18" transform="translate(-250 -644)" clip-path="url(#clip-path)">
    <g id="lumens_negative" transform="translate(255.109 644.017)">
      <g id="Layer_3" data-name="Layer 3">
        <rect id="Rectangle_388" data-name="Rectangle 388" width="26.783" height="28" transform="translate(0 -0.017)" fill="none"/>
      </g>
      <g id="Layer_9" data-name="Layer 9">
        <path id="Path_232" data-name="Path 232" d="M10.039,21.728a6.574,6.574,0,0,1-2.707-1.9,9.739,9.739,0,0,1-1.894-2.707,13.532,13.532,0,0,1-.543-3.384,9.425,9.425,0,0,1,.677-3.387,6.535,6.535,0,0,1,1.9-2.707,9.71,9.71,0,0,1,2.707-1.9,9.474,9.474,0,0,1,3.384-.677,9.5,9.5,0,0,1,3.387.677,6.535,6.535,0,0,1,2.707,1.9,9.688,9.688,0,0,1,1.894,2.707,9.425,9.425,0,0,1,.679,3.387,7.355,7.355,0,0,1-.8,3.384,6.513,6.513,0,0,1-1.9,2.707,9.761,9.761,0,0,1-2.729,1.9,9.476,9.476,0,0,1-3.377.672,9.474,9.474,0,0,1-3.384-.677M13.691.465A.5.5,0,0,0,13.284.6L10.577,4.251,6.114,2.907H5.707c-.136.134-.27.27-.27.4V7.918L1.1,9.269c-.134.134-.27.134-.27.407v.407L3.54,13.735.833,17.387a.29.29,0,0,0-.1.195V17.6a.3.3,0,0,0,.1.195.292.292,0,0,0,.27.27l4.334,1.49v4.611a.487.487,0,0,0,.134.4.243.243,0,0,0,.407,0l4.334-1.354,2.707,3.652a.487.487,0,0,0,.4.136.5.5,0,0,0,.409-.136l2.707-3.652,4.331,1.354h.407a.487.487,0,0,0,.149-.4v-4.6l4.331-1.49a.292.292,0,0,0,.273-.27.265.265,0,0,0,.265-.27l-2.715-3.652L26.3,10.226a.3.3,0,0,0,.1-.2.29.29,0,0,0-.1-.2.29.29,0,0,0-.27-.27l-4.334-1.49V3.311a.487.487,0,0,0-.136-.4.243.243,0,0,0-.4,0L16.8,4.261,14.093.609A.5.5,0,0,0,13.7.47Z" fill="#fff"/>
        <g id="Group_286" data-name="Group 286" clip-path="url(#clip-path-2)">
          <rect id="Rectangle_389" data-name="Rectangle 389" width="25.66" height="26.539" transform="translate(0.73 0.47)" fill="#fff"/>
        </g>
      </g>
    </g>
  </g>
</svg>
