<svg id="Layer_1" data-name="Layer 1" xmlns="http://www.w3.org/2000/svg" viewBox="0 0 500 289.26">
  <defs>
    <style>
      .cls-1 {
        fill: gray;
      }

      .cls-2 {
        fill: #737373;
      }

      .cls-3 {
        fill: #666;
      }

      .cls-4 {
        fill: #595959;
      }

      .cls-5 {
        fill: #4d4d4d;
      }

      .cls-6 {
        fill: #404040;
      }

      .cls-7, .cls-8 {
        fill: #3a3a3a;
      }

      .cls-8 {
        isolation: isolate;
        font-size: 72.45px;
        font-family: OpenSans, Open Sans;
      }
    </style>
  </defs>
  <g>
    <path class="cls-1" d="M192.73,184.88a7.35,7.35,0,0,1-5.93-6.2c-.18-1-.23-14-.23-42.74V94.54h-8.3c-7.87-.09-8.3-.09-8.86-.57a4,4,0,0,1-1.07-1.34c-.58-1.22-.36-2.34.84-3.66,1.46-1.53,82.75-67.53,84-68.19a5.4,5.4,0,0,1,4.58,0c.58.3,11.25,8.87,23.7,19s22.76,18.47,22.82,18.47.14-3,.2-6.79c.08-9.59-.58-9,9.67-9,7.81,0,8.13,0,9.15,1.49.47.67.47,1,.58,15.54L324,74.37l8.45,6.88c4.66,3.78,8.89,7.31,9.32,7.78a2.92,2.92,0,0,1,.73,3.51,4.43,4.43,0,0,1-1.05,1.34c-.64.49-1,.49-8.88.57h-8.22v41.41c0,28.73-.09,41.79-.26,42.75a7.43,7.43,0,0,1-4.32,5.75l-1.28.59H256.08c-34.37,0-62.82,0-63.46-.14Z"/>
    <path class="cls-2" d="M193.1,184.67a8.41,8.41,0,0,1-3.88-2.21,11.26,11.26,0,0,1-1.18-2l-.59-1.29-.16-42.36-.11-42.36L179,94.32c-8.16-.12-8.3-.12-9-.66a3,3,0,0,1-.53-4.13,3.47,3.47,0,0,1,.41-.45c1.19-1.22,82.66-67.23,83.62-67.84a5.15,5.15,0,0,1,5,0c.52.33,11.13,8.86,23.54,19s22.73,18.38,22.9,18.41.36-.84.36-6.58c0-9.75-.68-9.17,9.48-9.17,8,0,8.29.06,9.09,1.65.38.78.41,2,.41,15.3,0,8,.09,14.61.17,14.72s3.93,3.3,8.54,7,8.68,7.1,9.1,7.49a3.07,3.07,0,0,1,0,4.7c-.74.5-.88.53-9,.62l-8.29.12-.12,42.36-.12,42.36-.76,1.55a6.26,6.26,0,0,1-3.55,3.48l-1.19.59H256.52c-34.37,0-62.94,0-63.52-.14Zm79.41-52.48c1.46-.9,1.46-.63,1.46-16.16,0-12.87-.06-14.1-.44-14.88-.3-.6-2.37-2.44-7.49-6.56-8.3-6.7-8.86-7.09-10-7.09s-1.68.41-10,7.09c-5.1,4.14-7.19,6-7.48,6.58s-.41,2-.41,14.92c0,15.83,0,15.32,1.6,16.16.73.39,2,.41,16.38.41C271.39,132.66,271.77,132.66,272.51,132.19Z"/>
    <path class="cls-3" d="M193.32,184.52a10.83,10.83,0,0,1-2.48-.72,8,8,0,0,1-3.49-4c-.41-1.22-.44-2.44-.5-43.4V94.2h-8.19c-7.37,0-8.3-.12-8.81-.48a2.94,2.94,0,0,1-1.1-3.65c.24-.55,10.51-9,41.9-34.55,22.88-18.56,42-34,42.57-34.31a5.55,5.55,0,0,1,4.48-.09c.5.25,11.23,8.83,23.82,19.07q11.44,9.39,23,18.62a68.66,68.66,0,0,0,.23-6.88c.09-7.67.15-8.06,1.61-8.68,1.11-.49,14.62-.49,15.74,0,1.56.68,1.51.14,1.56,16.55l.09,14.73L332.91,82c6.61,5.39,9.21,7.63,9.41,8.14a2.93,2.93,0,0,1-1.08,3.66c-.58.35-1.46.41-8.83.47h-8.15l-.09,42.18c-.06,41.2-.06,42.18-.49,43.44a8.1,8.1,0,0,1-4.26,4.37c-1.26.45-2.3.45-63,.48-33.95,0-62.36-.07-63.09-.17Zm90-39.52c1.34-.39,2-1.35,2.27-3.2.15-1,.21-10.78.18-24.14-.09-26.11.35-22.72-3.2-25.57q-12.68-10.74-25.91-20.77l-1.08-.49-1.08.49c-4.74,3.49-9.48,7.18-14.05,11s-9.13,7.48-13.69,11.28c-1.45,1.42-1.39,0-1.39,24.55,0,12.36.08,23,.2,23.8a3.25,3.25,0,0,0,2.19,3.05c1,.31,54.52.31,55.56,0Z"/>
    <path class="cls-4" d="M192.25,184.16a6.33,6.33,0,0,1-3.31-2.43c-1.46-2-1.38.72-1.38-45.21,0-32.33,0-42-.3-42.21S184.89,94,179,94c-8.55,0-8.83,0-9.65-1.21a2.93,2.93,0,0,1,.32-3.33c.67-.77,81-66.21,83.42-67.95a3.71,3.71,0,0,1,2.95-.8,3.46,3.46,0,0,1,2.9.83c.68.45,11.17,8.92,23.35,18.86s22.32,18.08,22.52,18.17a.39.39,0,0,0,.54-.11c.08-.18.2-3.39.2-7.12V44.57l.76-.8.78-.81h15.41l.79.81.75.8V59.19c0,9.45.09,14.78.23,15.08s4.08,3.66,8.83,7.42c3.15,2.52,6.24,5.13,9.27,7.78a2.9,2.9,0,0,1,.32,3.3C341.91,94,341.64,94,333.05,94c-6.41,0-8.05,0-8.3.3s-.29,12-.29,42.62l-.08,42.31-.47,1.07a7.08,7.08,0,0,1-3.27,3.45l-1.3.65-63,.06c-59.27,0-63.06,0-64.1-.36Zm92.45-39a5.32,5.32,0,0,0,1.19-1.08c.46-.63.5-1,.62-10.36.08-5.32.16-16,.16-23.8,0-13.23,0-14.18-.4-15s-2-2.25-9.77-8.59L262.81,75.08c-1.66-1.4-3.37-2.73-5.15-4a3.51,3.51,0,0,0-2-.3c-1.42.12-.54-.54-13.92,10.42l-12.3,10.06c-2.91,2.44-3.37,2.87-3.75,3.82s-.38,2.44-.24,24.36c.14,21.49.18,23.4.56,24.16a3.32,3.32,0,0,0,2.47,1.89c.47,0,13.17.11,28.2.08,25.66-.07,27.4-.1,28.08-.49Z"/>
    <path class="cls-5" d="M192.59,184.37a7.16,7.16,0,0,1-5-4.1l-.52-1.22L187,136.6l-.12-42.49L178.58,94c-4.52-.1-8.39-.25-8.57-.33a2.68,2.68,0,0,1-1.32-3.47c.3-.7,7.87-7,40.82-33.75,22.3-18.1,41.24-33.46,42.11-34.09,2.62-2.07,4.66-2.19,7-.49.58.43,10.49,8.42,22,17.78,24.12,19.64,23.77,19.35,24,19.17a45.84,45.84,0,0,0,.24-6.83c0-7.6.08-8.08,1.45-8.69,1.18-.5,14.42-.5,15.62,0,1.48.64,1.46.31,1.46,16.56V74.51l9.2,7.49c9.74,7.92,10,8.19,9.7,9.83a3.05,3.05,0,0,1-1.48,1.93c-.2.08-4.08.23-8.59.29l-8.3.12-.12,42.49-.11,42.47-.53,1.22a7.74,7.74,0,0,1-3.56,3.65l-1.18.54-62.51.06c-34.37,0-62.94-.06-63.46-.17Zm104-26.38a3.62,3.62,0,0,0,1.42-1.58l.5-1,.06-33.29c.08-33.17.08-33.29-.42-34.1s-2-2.11-15.2-12.81L267.71,62.77c-3.38-2.85-6.94-5.6-10.49-8.19a3.67,3.67,0,0,0-3.44,0c-3.55,2.63-7.11,5.39-10.52,8.24L228,75.18c-13.18,10.69-14.78,12-15.22,12.81s-.47,1-.41,34.09l.06,33.3.52,1A3.4,3.4,0,0,0,214.5,158l1,.53h80.25Z"/>
    <path class="cls-6" d="M193.69,184.24c-3.38-.48-5.42-2.7-5.93-6.37-.12-1-.2-18.57-.22-42.82V94h-8.17c-7.31,0-8.3-.12-8.94-.47a2.62,2.62,0,0,1-1-.9,3.25,3.25,0,0,1,.24-2.91c.26-.33,3.41-3,7-6q38.37-31.44,77.12-62.38a5,5,0,0,1,4.34,0c.5.29,11.19,8.86,23.71,19.07S304.88,59,305.06,59s.37-.25.46-.54.12-3.53.12-7.18V44.5l.7-.69.64-.7h15.4l.67.7.67.69.06,9.24c0,5.09.09,11.86.14,15.07l.15,5.81,8.48,6.85c4.66,3.76,8.86,7.31,9.32,7.78a2.61,2.61,0,0,1,.28,3.62,2.69,2.69,0,0,1-.62.55c-.64.35-1.64.41-8.92.47h-8.19v41.22c0,25.68-.09,41.82-.23,42.81a6.64,6.64,0,0,1-6.12,6.29c-1.92.29-122.56.29-124.45,0Zm103.12-25.58a5.64,5.64,0,0,0,2.5-2.52c.27-.62.35-5.17.47-26.28l.14-25.57h11.86v-11c-.06-10.51-.09-11-.53-11.76A81.65,81.65,0,0,0,304,75.19L263.52,42.31c-2.59-2.09-5-4-5.39-4.23a5.07,5.07,0,0,0-3.9,0c-.38.21-2.8,2.1-5.39,4.19q-20.15,16.54-40.44,33a84.9,84.9,0,0,0-7.29,6.38c-.43.72-.46,1.22-.52,11.77v11h11.85l.15,25.58c.11,17.36.23,25.72.41,26.15a5.62,5.62,0,0,0,2.37,2.59c.58.29,7.75.32,40.78.32,27.77,0,40.3-.06,40.8-.26Z"/>
    <path class="cls-7" d="M193,183.48a6.32,6.32,0,0,1-3.41-2.16c-1.9-2.15-1.74,1.48-1.74-45.79,0-34.22-.06-41.92-.3-42.12s-3.06-.3-8.63-.33h-8.29l-.68-.78a2.41,2.41,0,0,1-.38-2.75,94.15,94.15,0,0,1,7.73-6.68l73.19-59.48a30.78,30.78,0,0,1,3.85-2.9,4.91,4.91,0,0,1,5.3,1.22L266,26.86c24.18,19.6,38.22,31,38.68,31.34,1.12.78,1.19.48,1.19-6.94s0-7.82,1.19-8.39a47.38,47.38,0,0,1,7.81-.29c7.81,0,8.19.08,8.74,1.31.2.45.29,4.37.29,15.07,0,7.92,0,14.61.12,14.8s4.23,3.66,9.23,7.8q4.86,3.76,9.35,8a2.38,2.38,0,0,1-.37,2.75l-.67.78h-8.3a62.11,62.11,0,0,0-8.62.3c-.23.23-.29,7.93-.29,42.17,0,47.25.14,43.62-1.74,45.81a8.78,8.78,0,0,1-2.08,1.67l-1.1.57H256.59c-34.6,0-63.17,0-63.55-.12Zm116.7-13a5,5,0,0,0,1.72-1.77l.64-1.11v-42.8L312.07,82l-.53-1c-.61-1.21,2,1-42.3-35q-5.55-4.64-11.37-9a6,6,0,0,0-3.82,0c-.4.17-5.53,4.19-11.36,9-44.32,35.92-41.7,33.74-42.3,34.93l-.56,1,.06,42.82.08,42.84.62,1.11a5.11,5.11,0,0,0,2.88,2.31c.32.11,24.09.18,52.82.15h52.23Z"/>
    <text class="cls-8" transform="translate(3.7 267.94) scale(0.97 1)">Apple HomeKit</text>
  </g>
</svg>
