<svg xmlns="http://www.w3.org/2000/svg" viewBox="0 0 51 53">
  <defs>
    <style>
      .cls-1 {
        fill: #5d6b82;
      }
    </style>
  </defs>
  <g id="cross">
    <g>
      <path class="cls-1" d="M50.72,6.93,3.55,48.8a.58.58,0,0,1-.76,0L.41,46.69a.45.45,0,0,1,0-.68L47.58,4.14a.58.58,0,0,1,.76,0l2.38,2.12A.43.43,0,0,1,50.72,6.93Z"/>
      <path class="cls-1" d="M3.62,4.2,50.79,46.07a.43.43,0,0,1,0,.67L48.4,48.86a.56.56,0,0,1-.75,0L.47,7a.45.45,0,0,1,0-.68L2.86,4.2A.58.58,0,0,1,3.62,4.2Z"/>
    </g>
  </g>
</svg>
