<svg id="Layer_2" data-name="Layer 2" xmlns="http://www.w3.org/2000/svg" viewBox="0 0 663 582">
  <defs>
    <style>
      .cls-1 {
        fill: #3cdbc0;
      }
    </style>
  </defs>
  <g>
    <polyline class="cls-1" points="381.4 320.51 627.42 526.09 644.3 502.13 399.47 297.44"/>
    <polyline class="cls-1" points="264.1 297.86 21.53 501.11 38.26 525.05 282.43 320.56"/>
    <path class="cls-1" d="M607.72,52.92H55.28A47.79,47.79,0,0,0,7.5,100.71V495.29a47.79,47.79,0,0,0,47.78,47.79H607.72a47.79,47.79,0,0,0,47.78-47.79V100.71A47.79,47.79,0,0,0,607.72,52.92ZM628.2,482.27c0,17.83-11.59,32.42-29.43,32.42H64.23c-17.84,0-29.43-14.59-29.43-32.42V113.73c0-17.83,11.59-32.42,29.43-32.42H598.77c17.84,0,29.43,14.59,29.43,32.42Z"/>
    <path class="cls-1" d="M372.74,297.67c-28.14,23.79-53,23.88-81.27.2L38.11,81.93l-23,21.84L283.31,330a75.78,75.78,0,0,0,97.59-.21l267-226L625,82Z"/>
  </g>
</svg>
