<svg id="logo" xmlns="http://www.w3.org/2000/svg" viewBox="0 0 130.3 130.3">
  <defs>
    <style>
      .cls-1 {
        fill: #1f252d;
      }

      .cls-2 {
        fill: #36edad;
      }
    </style>
  </defs>
  <g id="u">
    <path class="cls-1" d="M8.33,26.11c0-1.44.53-1.68,1.77-1.58A26.33,26.33,0,0,1,34.58,50.64c.05,6.76.09,13.58,0,20.3a31.15,31.15,0,0,0,8.59,22.65A43.2,43.2,0,0,0,48,97.76a33.45,33.45,0,0,0,9.74,4.18A30.65,30.65,0,0,0,94.62,80.82,32.54,32.54,0,0,0,95.77,72c0-6.72,0-13.43,0-20.15,0-5.91,1.34-11.47,4.94-16.37a26.47,26.47,0,0,1,19.58-10.89c1.15-.15,1.63.09,1.58,1.39,0,16.27,0,32.49,0,48.76a50.32,50.32,0,0,1-2.25,13.77,56,56,0,0,1-21.17,30.05c-.67.48-1.44.86-2.16,1.29a52.42,52.42,0,0,1-25.72,9.07c-19.1,1.58-35.28-4.75-48.14-19A53.9,53.9,0,0,1,8.61,77.18Z"/>
    <path class="cls-2" d="M83.82,45.67a58.53,58.53,0,0,1-9.93,14.88,10.66,10.66,0,0,1-5.37,3.25c3-8.53,5.6-26.93-.76-42,2.34,11.9-4.46,29.75-9,39.63-2-.5.58.78-.91-.89a57.15,57.15,0,0,1-10-14.88c-3.79-8.8-2.75-17,2.57-24.67,3-4.33,6.05-8.57,9.16-12.77L64.28,2a2,2,0,0,1,3.16,0l4.65,6.27c3.15,4.2,6.18,8.44,9.15,12.77C86.57,28.71,87.6,36.87,83.82,45.67Z"/>
  </g>
</svg>
