<svg xmlns="http://www.w3.org/2000/svg" width="71" height="42" viewBox="0 0 71 42">
  <g id="Group_358" data-name="Group 358" transform="translate(-74 -6372)">
    <g id="Rectangle_39" data-name="Rectangle 39" transform="translate(74 6372)" fill="#fff" stroke="#707070" stroke-width="1">
      <rect width="71" height="42" stroke="none"/>
      <rect x="0.5" y="0.5" width="70" height="41" fill="none"/>
    </g>
    <g id="google-pay-primary-logo" transform="translate(83.508 6382.702)">
      <g id="Group_264" data-name="Group 264" transform="translate(22.666 1.169)">
        <path id="Path_221" data-name="Path 221" d="M1042.821,63.646V69.7H1040.9V54.753h5.091a4.6,4.6,0,0,1,3.3,1.293,4.322,4.322,0,0,1,0,6.326,4.584,4.584,0,0,1-3.3,1.272l-3.17,0Zm0-7.053V61.81h3.218a2.6,2.6,0,0,0,1.949-4.375c-.018-.017-.033-.035-.05-.05a2.5,2.5,0,0,0-1.9-.793Zm12.268,2.546a4.761,4.761,0,0,1,3.36,1.137,4.035,4.035,0,0,1,1.23,3.118v6.3h-1.836v-1.42h-.083a3.667,3.667,0,0,1-3.173,1.753,4.118,4.118,0,0,1-2.827-1,3.2,3.2,0,0,1-1.137-2.5,3.037,3.037,0,0,1,1.2-2.524,5.058,5.058,0,0,1,3.2-.939,5.68,5.68,0,0,1,2.816.625v-.44a2.185,2.185,0,0,0-.793-1.7,2.717,2.717,0,0,0-1.853-.7,2.941,2.941,0,0,0-2.545,1.357l-1.69-1.065a4.7,4.7,0,0,1,4.127-2Zm-2.485,7.428a1.536,1.536,0,0,0,.636,1.252,2.342,2.342,0,0,0,1.492.5,3.067,3.067,0,0,0,2.16-.9,2.8,2.8,0,0,0,.954-2.108,3.922,3.922,0,0,0-2.5-.716,3.241,3.241,0,0,0-1.951.564,1.689,1.689,0,0,0-.786,1.4Zm17.614-7.094L1063.81,74.2h-1.982l2.378-5.154-4.216-9.577h2.086l3.046,7.345h.041l2.964-7.345Z" transform="translate(-1040.9 -54.752)" fill="#5f6368"/>
      </g>
      <path id="Path_222" data-name="Path 222" d="M402.444,324.746A10.2,10.2,0,0,0,402.3,323h-8.1v3.305h4.636a3.971,3.971,0,0,1-1.714,2.609v2.147h2.768a8.389,8.389,0,0,0,2.554-6.315Z" transform="translate(-385.616 -315.99)" fill="#4285f4"/>
      <path id="Path_223" data-name="Path 223" d="M49.669,476.642a8.209,8.209,0,0,0,5.69-2.073l-2.768-2.147A5.206,5.206,0,0,1,44.85,469.7H42v2.212A8.582,8.582,0,0,0,49.669,476.642Z" transform="translate(-41.085 -459.496)" fill="#34a853"/>
      <path id="Path_224" data-name="Path 224" d="M3.765,222.7a5.143,5.143,0,0,1,0-3.286V217.2H.915a8.583,8.583,0,0,0,0,7.711Z" transform="translate(0 -212.494)" fill="#fbbc04"/>
      <path id="Path_225" data-name="Path 225" d="M49.669,3.376a4.662,4.662,0,0,1,3.292,1.287l2.452-2.45A8.258,8.258,0,0,0,49.669-.023,8.585,8.585,0,0,0,42,4.706l2.85,2.212A5.134,5.134,0,0,1,49.669,3.376Z" transform="translate(-41.085 0)" fill="#ea4335"/>
    </g>
  </g>
</svg>
