<svg id="Layer_1" data-name="Layer 1" xmlns="http://www.w3.org/2000/svg" xmlns:xlink="http://www.w3.org/1999/xlink" viewBox="0 0 500 289.26">
  <defs>
    <style>
      .cls-1 {
        fill: none;
      }

      .cls-2 {
        clip-path: url(#clip-path);
      }

      .cls-3 {
        fill: #3a3a3a;
      }
    </style>
    <clipPath id="clip-path">
      <rect class="cls-1" x="205.73" y="16.32" width="100.44" height="122.38"/>
    </clipPath>
  </defs>
  <g>
    <g class="cls-2">
      <g>
        <path class="cls-3" d="M305.09,55.8a50.16,50.16,0,0,0-84.34-24.94,51.88,51.88,0,0,0-15,32.64,55.35,55.35,0,0,0,5.44,26.28,53,53,0,0,0,9.52,13.15,39.39,39.39,0,0,0,3.63,3.18,44,44,0,0,1,17.24-10.86,44.76,44.76,0,0,1,23.13-1.37,43.87,43.87,0,0,1,14.51,5.9,42.73,42.73,0,0,1,7.71,6.35l1.81-1.36a52.68,52.68,0,0,0,9.08-10.89c2.38-3.82,11.39-18.78,7.25-38.08m-10.9,14.12A34.23,34.23,0,0,1,291,83.07,31.45,31.45,0,0,1,287.4,89l-1.81,1.35a61,61,0,0,0-39.45-7.25,57.39,57.39,0,0,0-20.4,7.71c-.44-.62-1.09-1.57-1.81-2.72a54.62,54.62,0,0,1-4.08-8.17c-4.22-11.17-1.37-22.67-1.37-22.67A38.26,38.26,0,0,1,291,51.3a41.53,41.53,0,0,1,3.17,18.62"/>
        <path class="cls-3" d="M272,122.46a24.46,24.46,0,0,0-5.89-4.09A23.11,23.11,0,0,0,252,116.1a22.56,22.56,0,0,0-12.24,6.36l-6.87-6.61c.32-.37.82-.91,1.45-1.52a29.28,29.28,0,0,1,14.06-7.25,33.37,33.37,0,0,1,16.78.44,32.47,32.47,0,0,1,13.59,8.17Z"/>
        <path class="cls-3" d="M262.92,129.71a12.8,12.8,0,0,0-6.34-2.27c-1.08-.07-5.07-.34-7.71,2.27a7.4,7.4,0,0,0-.78.9l7.82,8.09,7.92-8.09Z"/>
      </g>
    </g>
    <polygon class="cls-3" points="110.92 163.14 110.92 268.05 166.32 268.33 166.32 243.36 136.2 242.75 136.45 163.14 110.92 163.14"/>
    <rect class="cls-3" x="186.06" y="162.53" width="26.33" height="105.99"/>
    <polygon class="cls-3" points="358.68 163.14 345.14 192.78 331.73 163.14 234.72 163.14 234.72 268.94 260.85 268.94 260.85 235.44 295.16 235.52 295.16 210.84 260.85 210.96 260.85 189.17 315.63 189.17 331.19 216.26 301.18 268.94 330.81 268.94 345.14 242.15 357.88 268.94 389.08 268.94 359.81 216.26 389.08 163.14 358.68 163.14"/>
  </g>
</svg>
