<svg id="Layer_2" data-name="Layer 2" xmlns="http://www.w3.org/2000/svg" viewBox="0 0 500 500">
  <defs>
    <style>
      .cls-1 {
        fill: #3cdbc0;
      }
    </style>
  </defs>
  <g>
    <path class="cls-1" d="M203.83,186.74c-25.64,2.69-101.14,121.18-90.65,135.5C124,337,194.29,260,209.56,260s64,56.53,86.88,56.53c24.81,0,104.07-126.82,89.65-139.32s-76.34,65.12-91.6,64.17C278.3,240.34,222,184.83,203.83,186.74Z"/>
    <path class="cls-1" d="M250,5C116.7,5,8.64,113.06,8.64,246.36A240.64,240.64,0,0,0,81.58,419.23l-.06,0c9.1,10,6.25,68,16.74,74.64C109.46,501,163.94,473,175.15,476l1,.18A241.08,241.08,0,0,0,250,487.72c133.3,0,241.36-108.06,241.36-241.36S383.3,5,250,5Zm0,452.42a219.51,219.51,0,0,1-75.4-13.26c-18.84-6.59-47,11.73-49.49,9.85s.58-33.45-12-44.49c-48.44-38.89-79.36-98-79.36-164.18C33.76,128.22,130.57,33.27,250,33.27s216.24,94.95,216.24,212.07S369.43,457.42,250,457.42Z"/>
  </g>
</svg>
