<svg id="Layer_1" data-name="Layer 1" xmlns="http://www.w3.org/2000/svg" xmlns:xlink="http://www.w3.org/1999/xlink" viewBox="0 0 500 289.26">
  <defs>
    <style>
      .cls-1 {
        fill: none;
      }

      .cls-2 {
        fill: #3a3a3a;
      }

      .cls-3 {
        clip-path: url(#clip-path);
      }

      .cls-4 {
        fill: #5d6b82;
      }

      .cls-5 {
        clip-path: url(#clip-path-2);
      }
    </style>
    <clipPath id="clip-path">
      <path class="cls-1" d="M278.3,217.75v13.13c0,21.78-14.58,29.53-29,29.53-18.43,0-27.94-13.27-28-28.76l-.11-13.9H210.65l.11,11.37c0,27.86,17.58,41.88,39.56,41.88a39.79,39.79,0,0,0,30-13.46l.1-.07.14-.16.2-.24a19.52,19.52,0,0,0,6.83,10.55A18.78,18.78,0,0,0,299.42,271v-10.4a11.07,11.07,0,0,1-5-1,7.57,7.57,0,0,1-2.2-2.13,24.52,24.52,0,0,1-2.49-8.42,92.62,92.62,0,0,1-.68-13.63c0-.76.06-1.53.06-2.31V217.75ZM106.92,271h10.55V217.73H106.92Zm67.74,0H185.2V217.73H174.66Zm150.65-92.34A30.63,30.63,0,0,1,332.37,159c4.86-5.87,12.25-9.21,21.87-8.72,8.61.43,16.74,3.74,22,9.85a28.69,28.69,0,0,1,6.28,17.55c.3,8.33-2.09,14.74-6.4,19.36-4.64,5-11.53,7.85-19.74,8.76a59.9,59.9,0,0,1-6.7.17H325.31Zm27.23-39c-11.64,0-21.47,4.48-28.26,12.63-7.82,9.41-9.5,18.13-9.5,30.37V206H299.39v10.52h15.35V226a78.81,78.81,0,0,0,.32,9.72,49.23,49.23,0,0,0,3.13,12.52,37,37,0,0,0,10.5,14.7,37.44,37.44,0,0,0,23.53,8c12.71.16,26-5,33.82-15.69-2.76-2.11-5.68-4-8.51-6.13-7.4,8-14.7,11.7-25.93,11.33a26.85,26.85,0,0,1-15.89-5.4,26.21,26.21,0,0,1-8-11.33,36.87,36.87,0,0,1-2.41-12.33V220.5l.06-4.05H351.2a37.36,37.36,0,0,0,4.49-.14c11.25-.37,21.18-4.79,27.94-12.15a36.33,36.33,0,0,0,9.4-26.28c-.26-8.64-3-17.39-7.78-23.58-7.44-9.56-19.44-14.68-32.65-14.7h-.1M210.92,204.31h10.54V139.55H210.92Zm67.38,0H289V139.55H278.3ZM106.92,88.82V204.34h10.55V177.89c0-17.63,14.42-27.71,28.68-27.75,15.9,0,28.51,10.39,28.51,30.37V204.4H185.2V182.29h0v-2.35c0-23-14.68-40.44-38.75-40.44-6.73,0-19.73,2.15-29,11.5V88.82Z"/>
    </clipPath>
    <clipPath id="clip-path-2">
      <rect class="cls-1" x="108.95" y="20.35" width="280.9" height="51.51"/>
    </clipPath>
  </defs>
  <g>
    <path class="cls-2" d="M278.3,217.75v13.13c0,21.78-14.58,29.53-29,29.53-18.43,0-27.94-13.27-28-28.76l-.11-13.9H210.65l.11,11.37c0,27.86,17.58,41.88,39.56,41.88a39.79,39.79,0,0,0,30-13.46l.1-.07.14-.16.2-.24a19.52,19.52,0,0,0,6.83,10.55A18.78,18.78,0,0,0,299.42,271v-10.4a11.07,11.07,0,0,1-5-1,7.57,7.57,0,0,1-2.2-2.13,24.52,24.52,0,0,1-2.49-8.42,92.62,92.62,0,0,1-.68-13.63c0-.76.06-1.53.06-2.31V217.75ZM106.92,271h10.55V217.73H106.92Zm67.74,0H185.2V217.73H174.66Zm150.65-92.34A30.63,30.63,0,0,1,332.37,159c4.86-5.87,12.25-9.21,21.87-8.72,8.61.43,16.74,3.74,22,9.85a28.69,28.69,0,0,1,6.28,17.55c.3,8.33-2.09,14.74-6.4,19.36-4.64,5-11.53,7.85-19.74,8.76a59.9,59.9,0,0,1-6.7.17H325.31Zm27.23-39c-11.64,0-21.47,4.48-28.26,12.63-7.82,9.41-9.5,18.13-9.5,30.37V206H299.39v10.52h15.35V226a78.81,78.81,0,0,0,.32,9.72,49.23,49.23,0,0,0,3.13,12.52,37,37,0,0,0,10.5,14.7,37.44,37.44,0,0,0,23.53,8c12.71.16,26-5,33.82-15.69-2.76-2.11-5.68-4-8.51-6.13-7.4,8-14.7,11.7-25.93,11.33a26.85,26.85,0,0,1-15.89-5.4,26.21,26.21,0,0,1-8-11.33,36.87,36.87,0,0,1-2.41-12.33V220.5l.06-4.05H351.2a37.36,37.36,0,0,0,4.49-.14c11.25-.37,21.18-4.79,27.94-12.15a36.33,36.33,0,0,0,9.4-26.28c-.26-8.64-3-17.39-7.78-23.58-7.44-9.56-19.44-14.68-32.65-14.7h-.1M210.92,204.31h10.54V139.55H210.92Zm67.38,0H289V139.55H278.3ZM106.92,88.82V204.34h10.55V177.89c0-17.63,14.42-27.71,28.68-27.75,15.9,0,28.51,10.39,28.51,30.37V204.4H185.2V182.29h0v-2.35c0-23-14.68-40.44-38.75-40.44-6.73,0-19.73,2.15-29,11.5V88.82Z"/>
    <g class="cls-3">
      <path class="cls-4" d="M203.63,138a4.34,4.34,0,0,0-4.49,4.14h-.8a.45.45,0,0,0-.48.41v.06a.44.44,0,0,0,.41.47h.87a4.36,4.36,0,0,0,4.55,4.16h.22a6.28,6.28,0,0,0,2.83-.55.52.52,0,0,0,.35-.57.4.4,0,0,0-.18-.29.65.65,0,0,0-.51,0,3.12,3.12,0,0,0-.43.15,5.14,5.14,0,0,1-1.94.32,3.24,3.24,0,0,1-3.62-2.81c0-.12,0-.23,0-.34H207a.54.54,0,0,0,.6-.46v-.18C207.66,138.33,204.58,138,203.63,138Zm2.88,4.14h-6.08a3.16,3.16,0,0,1,3.14-3.16h.07a2.79,2.79,0,0,1,2.88,2.68,2.58,2.58,0,0,1,0,.48Zm-16.4-3.39a.63.63,0,0,0-1.22-.35.69.69,0,0,0,0,.35v3.43h1.22Zm5.21,4.64a2.74,2.74,0,0,1-2.58,2.88h-.05c-1.75,0-2.58-.94-2.58-2.84v-.34h-1.22v.41c0,2.43,1.22,3.74,3.48,3.74a3.11,3.11,0,0,0,3-1.75h0v1.05a.63.63,0,1,0,1.22.34.65.65,0,0,0,0-.34v-3.4h-1.22Zm.63-5.28a.57.57,0,0,0-.63.52.28.28,0,0,0,0,.13v3.42h1.21v-3.39a.59.59,0,0,0-.49-.69H196Zm-13-.1a3.15,3.15,0,0,0-3,1.7l-.17.33V135.3a.63.63,0,1,0-1.22-.35.69.69,0,0,0,0,.35v6.9h1.22a2.88,2.88,0,0,1,2.6-3.14h.2c1.57,0,2.43,1,2.43,2.83v.32h1.22v-.3c.05-2.52-1.14-3.88-3.28-3.88Zm-4.44,8.44a.63.63,0,0,0,1.22.35.69.69,0,0,0,0-.35v-3.36H178.5Zm6.5,0a.63.63,0,0,0,1.22.35.69.69,0,0,0,0-.35v-3.36H185Z"/>
    </g>
    <g class="cls-5">
      <path class="cls-2" d="M137.48,39.39c0,6.41-3.1,10.75-10.94,10.75h-2.43V29.72h2.43c7.44,0,10.94,3.51,10.94,9.72m-8.07,19.64c14.06,0,23-7.29,23-19.85,0-13.86-9.51-18.83-25-18.83a171.3,171.3,0,0,0-18.39,1V70.88H124V59.08ZM331.56,39.39c0,6.41-3.1,10.75-10.94,10.75h-2.43V29.72h2.43c7.45,0,10.94,3.51,10.94,9.72M323.5,59.08c14.05,0,22.94-7.29,22.94-19.85,0-13.86-9.5-18.83-25-18.83a171.52,171.52,0,0,0-18.41,1V70.88h15.1V59.08Zm42.53-25c0-2.69,2.69-3.94,7-3.94a38.11,38.11,0,0,1,13.44,2.49l-1.22-10.76a59.31,59.31,0,0,0-13.8-1.5c-12.15,0-20.46,4.86-20.46,14.9,0,17.37,23.56,13.86,23.56,21.87,0,3.09-2.27,4.75-7.86,4.75a45.4,45.4,0,0,1-17.16-3.93l1.67,11.39a50.11,50.11,0,0,0,15.71,2.43c12.6,0,22.93-4.15,22.93-16.55,0-16.55-23.77-13.45-23.77-21.31M291.67,21.38H276.58V70.83h15.09Zm-61.18,0H215.4V70.83h15.15Zm26.24,39.51V21.38H241.64V70.83h27.29l2.27-9.94ZM204.24,21.38H189.15V41h-15.7V21.38h-15.1V70.83h15.1V51.39h15.71V70.83h15.09Z"/>
    </g>
  </g>
</svg>
